<?xml version="1.0" encoding="UTF-8"?>
<svg id="Layer_1" xmlns="http://www.w3.org/2000/svg" version="1.1" xmlns:xlink="http://www.w3.org/1999/xlink" viewBox="0 0 1024 1024">
  <!-- Generator: Adobe Illustrator 29.8.1, SVG Export Plug-In . SVG Version: 2.1.1 Build 2)  -->
  <defs>
    <style>
      .st0 {
        fill: #fff;
      }

      .st1 {
        fill: url(#linear-gradient);
      }
    </style>
    <linearGradient id="linear-gradient" x1="107.77" y1="590.83" x2="906.39" y2="590.83" gradientTransform="translate(0 -58.11)" gradientUnits="userSpaceOnUse">
      <stop offset="0" stop-color="#dc4b2d"/>
      <stop offset=".68" stop-color="#ecea61"/>
      <stop offset="1" stop-color="#009340"/>
    </linearGradient>
  </defs>
  <g id="kiwi">
    <path id="BG1" class="st0" d="M0,0h1024v1024H0V0H0Z"/>
    <path id="W-I1" d="M490.23,532.44l-13.44-45.5c-2.56-8.96-5.73-17.52-6.45-26.84-2.23-28.87,29.42-43.36,52.88-30.76,11.62,6.28,13.68,15.44,16.92,27.53l14,51.13c1.6,5.79,4.22,17.14,6.16,22.35l.26-.68c2.36-6.27,5.09-19.92,6.69-26.98l9.55-40.51c3.17-13.47,4.5-28.15,18.99-34.11,14.95-6.15,41.19-4.49,48.24,12.83,2.89,7.1,4.7,16.4,6.59,23.96l8.87,35.5c1.93,7.94,4.71,20.29,7.2,27.93l.3-.62c2.29-4.93,5.48-18.05,7.02-23.78l11.7-43.56c1.71-6.34,4.03-16.89,7.55-22.17,11.76-17.45,41.11-17.33,54.83-2.24,12.6,13.86,8.41,28.29,2.98,44.26-5.81,17.09-11.17,34.69-16.32,51.98,4.53-.04,29.93.13,32.53-.47l.51-1.03c.51-12.49-.08-25.55.13-38.09.23-7.44-.67-15.7,1.13-22.93,6.58-26.47,41.42-32.61,59.63-14.01,11.95,12.21,9.32,27.37,9.23,43.21.38,10.49.17,22.63.05,33.2h43.21l-.2-9.73c8.21,4.04,17.2,9.77,25.43,14.26-6.94,3.81-18.74,11.09-25.18,14.16l.21-9.18c-13.04-.06-30.93-.64-43.51,0l-.03,47.74c0,8.12.96,22.52-.92,30.06-8.69,34.78-59.66,35.68-68.07.28-1.88-7.92-.93-23.5-.9-31.97l.04-45.75c-2.5-.93-32.02-.34-36.43-.04-6.72,21.57-13.39,43.18-20.44,64.63-6.93,22.69-10.25,41.62-39.57,39.52-10.16-.73-19.65,1.9-29.82-3.42-12.82-6.71-13.7-19.43-17.52-32.12-4.18-13.88-7.71-28.21-12.14-42.12l-.29.75c-2.07,5.47-3.78,12.13-5.48,17.86l-8.18,26.89c-7.78,25.31-11.28,33.11-40.85,32.15-14.86-.48-31.61.94-37.53-18.21-8.69-28.15-17.73-56.86-25.74-85.31l-.41-.57c-3.08-.53-32.26-.31-35.95,0-3.78.15-6.5.14-10.28-.03,3.35-2.16,5.6.34,8.59-1.25,2.39-4.1,0-4.04.61-7.33-.55-.28-5.74-.38-7.32-.74,2.5-.16,5.66-.14,8.22-.19l32.72.09v-.03h0Z"/>
    <path id="K1" d="M182.07,532.1l-.09-74.79c0-6.53-.11-13.2.02-19.68.11-5.49-.37-12.31.75-17.63,6.35-30.25,46.29-38.1,63.26-12.17,5.07,7.75,5.19,14.04,5.06,22.93.17,16.47-.38,33.14-.03,49.61l.53-.52c5.1-5.08,11.95-13.89,16.66-19.65l25.26-30.71c10.85-13.2,19.96-27.81,38.86-27.59,18.04,0,33.36,16.16,32.85,34.15-.27,9.74-3.91,14.7-9.8,22.18-16.74,21.25-35.62,41.32-52.07,62.78,2.98,3.24,7.13,7.49,9.63,10.97-3.38-.03-8.34-.23-11.6-.03l2.58.65c-2.43,2.29-4.09,4.87-2.86,8.14-4.1,1.4-33.54.49-40.65.9,18.44.85,40.9.3,59.64.34,2.91,3.9,6.21,7.56,9.45,11.2,11.76,13.14,23.5,26.31,35.34,39.38,20.31,22.42-3.65,55.15-30.53,53.68-15.1-.82-21.55-7.67-31.29-18.32-17.26-18.88-33.9-38.62-51.28-57.37-.72,8.43-.24,21.9-.28,30.72.31,13.17.48,25.29-9.53,35.33-17.85,18.15-52.48,11.57-58.79-14.36-2.06-8.47-1.2-23.23-1.2-32.26v-48.1c-5.68.55-18.4.22-24.6.22l-49.45.1c-.17-3.37-.16-6.38-.13-9.75l49.6.04c4.78,0,20.94.27,24.68-.39h0Z"/>
    <path id="I-pehla1" d="M389.38,479.49c.73-40.57,56.58-45.64,67.19-8.63,1.65,5.75,1,19.14.99,25.53l-.05,35.95c-2.55.05-5.72.03-8.22.19,1.58.35,6.77.46,7.32.74-.62,3.29,1.78,3.23-.61,7.33-2.99,1.58-5.24-.91-8.59,1.25,3.78.17,6.5.17,10.28.03l.17,49.11c0,8.32.75,19.3-.93,27.39-7.35,35.75-57.4,37.15-66.58,2-2.34-8.96-1.25-25.41-1.23-34.91l-.08-43.62c-21.88.85-46.75-.15-68.98.14-18.74-.04-41.2.5-59.64-.34,7.11-.41,36.55.49,40.65-.9-1.23-3.27.43-5.84,2.86-8.14l-2.58-.65c3.25-.21,8.22,0,11.6.03,8.28.37,18.25.12,26.63.11l49.51.06c.12-16.61-.6-36.2.28-52.65v-.02h0Z"/>
    <path id="dot21" d="M802.09,366.17c19.49-.92,36.05,14.08,37.06,33.57,1.01,19.48-13.92,36.12-33.4,37.21-19.6,1.1-36.37-13.94-37.38-33.55s14.11-36.3,33.72-37.23Z"/>
    <path id="dot-11" d="M421.77,366.01c19.49-.92,36.05,14.08,37.06,33.57,1.01,19.48-13.92,36.12-33.4,37.21-19.6,1.1-36.37-13.94-37.38-33.55s14.11-36.3,33.72-37.23h0Z"/>
  </g>
  <g id="arrow">
    <path class="st1" d="M906.39,536.39c-8.23-4.49-17.22-10.22-25.43-14.26l.2,9.72h-42.9c-.11-.05-.23-.1-.36-.1h-70.63c-2.59.58-27.99.42-32.53.45-13.51-.3-27.75.07-40.95-.22-19.26-.43-19.8,7.42-24.44,23.45-.88,3.03-1.74,6.36-2.53,9.46-2.26-8.15-4.64-18.54-7.29-26.28-2.9-8.48-19.14-6.29-26.73-6.59-4.78-8.82-7.01-22.83-10.52-32.42-1.29-3.51-1.87-7.41-3.71-10.76-2.06-4.81-7.96-3.35-9.22.34-4.72,13.86-8.03,28.43-12.82,42.26l-.78.09c-8.78.92-27.15-1.86-31.55,5.06-4.02,6.33-8.28,22.89-10.58,30.7-2.52-7.71-4.93-15.64-7.6-23.27-4.12-1.56-10.48-47.47-21.27-25.96,0,0,0-.02-.01-.02,10.8-21.61,17.16,24.36,21.29,25.92-2.01-7.15-8.38-31.54-16.16-32.66-6.72,1.41-8.42,16.84-11.2,19.18-2.93,2.46-22.79,1.53-28.43,1.95l-32.72-.09c-2.55.05-5.72.03-8.22.19-13.6-.88-14.08,14.98-16.61,24.76-2.14-23.24-5.91-48.32-9.93-71.46-.65-3.76-7.85-4.05-8.95-.13-4.09,14.67-5.56,31.13-9.98,45.64l-.23.75-14.2.03h-.3l-49.51-.04c-8.38,0-18.35.26-26.63-.11-3.38-.03-8.34-.23-11.6-.03-16.31-1.07-35.62.38-52.14.12-11.79-.19-12.3,14.79-14.35,23.57-2.36-20.69-5.9-41.3-9.35-61.83-.6-3.53-1.14-7.68-2.53-10.96-2.41-2.31-7.13-2.36-8.16,1.38-4.17,15.07-5.66,32.04-10.12,46.94l-.21.68c-6.15.44-15.92.18-22.43.26-3.74.66-19.91.39-24.68.39l-49.6-.04c-.03,3.37-.04,6.38.13,9.75l49.45-.1c6.2,0,18.92.34,24.6-.22,8.07-.66,21.77,1.25,28.21-2.71,5.22-3.21,7.53-25.5,8.85-32.49.68,9.69,2.23,18.56,3.64,28.13,1.8,12.24,3.63,24.51,5.79,36.69.48,2.06.81,5.92,3.09,6.78,3.36,1.27,6.65-.41,7.74-3.8,3.35-10.4,4.42-22.36,8.55-32.47,3.66-.53,8.79-.38,12.59-.39,18.44.85,40.9.3,59.64.34,22.23-.3,47.09.71,68.98-.14,19.11-.7,22.94,2.97,26.11-19.8.54-3.89,1.33-9.92,2.35-13.68,1.02,8.7,8.48,66.77,11.01,70.56,13.49,10.05,11.93-33.94,18.89-37.07,3.78.17,6.5.17,10.28.03,3.69-.31,32.87-.53,35.95,0l.41.57c4.81-2.56,21.95,1.55,27.34-1.86,5.75-3.64,6.97-8.83,8.68-14.74.22.25.43.51.64.77,1.94,4.67,3.51,10.6,5.46,15.48v.09c3.09,12.66,9.14,25.9,12.45,38.63.72,2.8,4.32,4.14,6.87,2.99,2.22-.9,2.79-2.35,3.66-4.47,4.2-11.47,7.22-26.58,12.28-37.49,8.56-.17,27.73,1.75,32.22-4.47,4.59-6.35,8.4-26.55,10.7-34.82,1.52,8.27,7.46,32.54,14.47,37.35,4.58,3.15,15.88,1.74,22.06,1.93,3.61,10.87,6.8,22.34,10.79,33.08.97,2.61,3.81,5.84,6.97,5.25,5.42-3.34,10.66-29.57,14.73-38.07,16.03-.24,32.24.16,48.21-.19,4.41-.3,33.93-.89,36.43.04v-.19h69.88c.29,0,.54-.17.65-.42,12.54-.59,30.04-.02,42.87.03l-.21,9.18c6.44-3.07,18.24-10.35,25.18-14.16v.02h.01Z"/>
  </g>
</svg>